<?xml version="1.0" encoding="UTF-8" standalone="no"?>
<!-- Created with Inkscape (http://www.inkscape.org/) -->

<svg
   width="1080"
   height="1080"
   viewBox="0 0 1080 1080"
   version="1.1"
   id="svg1"
   xmlns="http://www.w3.org/2000/svg"
   xmlns:svg="http://www.w3.org/2000/svg">
  <defs
     id="defs1" />
  <g
     id="layer1">
    <path
       d="m 548.07924,338.4602 c -10.95307,-1.6e-4 -21.88591,0.95618 -32.67261,2.858 -10.78657,1.90222 -21.38704,4.74288 -31.67942,8.48924 -10.29309,3.74606 -20.23998,8.38408 -29.72618,13.86066 -9.48574,5.47658 -18.47569,11.7714 -26.86631,18.81197 -8.39021,7.0408 -16.15004,14.80127 -23.19018,23.19201 -7.04056,8.39064 -13.33537,17.38057 -18.81195,26.86633 -5.47648,9.48559 -10.1145,19.43185 -13.86068,29.72432 -3.74634,10.29238 -6.58701,20.89286 -8.48923,31.67941 -0.47708,3.98144 -0.82677,7.97735 -1.04849,11.98111 -5.29595,0.20002 -10.57517,0.72 -15.80837,1.55709 -8.44842,1.68034 -16.71161,4.18684 -24.66985,7.48313 -7.95795,3.29644 -15.57308,7.36691 -22.73504,12.1525 -7.16235,4.78537 -13.83747,10.2631 -19.92861,16.35383 -6.09073,6.09112 -11.56846,12.76626 -16.35381,19.92861 -4.78558,7.16196 -8.85608,14.77709 -12.15252,22.73503 -3.29627,7.95823 -5.80277,16.22144 -7.48313,24.66985 -1.68081,8.44772 -2.52761,17.04052 -2.52815,25.65383 4.2e-4,8.61395 0.84722,17.20734 2.52815,25.65568 1.68036,8.4484 4.18686,16.71161 7.48313,24.66985 3.29644,7.95795 7.36694,15.57308 12.15252,22.73502 4.78535,7.16236 10.26308,13.83747 16.35381,19.92863 6.09114,6.09071 12.76626,11.56844 19.92861,16.35382 7.16196,4.78558 14.77709,8.85607 22.73504,12.15249 7.95824,3.29629 16.22143,5.80277 24.66985,7.48315 8.44778,1.6802 17.04057,2.52637 25.65384,2.5263 H 737.8185 c 7.64535,1.4e-4 15.26661,-0.85842 22.72031,-2.5595 7.45444,-1.70104 14.69434,-4.23405 21.58333,-7.5513 6.88817,-3.31755 13.382,-7.39831 19.35923,-12.16539 5.97753,-4.76692 11.40079,-10.1902 16.16771,-16.16772 4.7671,-5.97724 8.84784,-12.47107 12.16539,-19.35921 3.31728,-6.889 5.85027,-14.12889 7.55133,-21.58336 1.70106,-7.45369 2.5596,-15.07495 2.55948,-22.72028 5.1e-4,-2.67373 -0.10396,-5.34648 -0.31325,-8.01201 -0.21016,-2.66477 -0.5249,-5.32031 -0.94346,-7.96037 -0.4183,-2.64099 -0.94018,-5.26457 -1.56442,-7.86459 -0.62415,-2.59925 -1.35011,-5.17303 -2.17623,-7.71532 -0.82619,-2.54261 -1.75196,-5.05185 -2.77508,-7.52183 -1.02273,-2.4704 -2.1421,-4.89972 -3.35553,-7.28225 -1.21378,-2.38201 -2.52062,-4.71543 -3.91755,-6.99485 -1.39672,-2.27973 -2.88246,-4.50373 -4.45376,-6.66682 -1.57163,-2.16299 -3.22767,-4.26346 -4.9642,-6.29646 -1.73603,-2.03292 -3.55125,-3.99692 -5.44143,-5.88737 -1.89045,-1.89018 -3.85445,-3.7054 -5.88739,-5.44143 -2.03298,-1.73655 -4.13345,-3.39257 -6.29644,-4.9642 -2.16309,-1.5713 -4.38711,-3.05706 -6.66682,-4.45376 -2.27942,-1.39693 -4.61284,-2.70377 -6.99485,-3.91755 -2.38249,-1.21404 -4.81181,-2.33405 -7.28227,-3.35737 -2.46997,-1.02252 -4.97923,-1.94766 -7.52181,-2.77324 -2.54231,-0.82612 -5.11607,-1.55207 -7.71534,-2.17623 -2.6,-0.62424 -5.22356,-1.14612 -7.86455,-1.56442 -2.6401,-0.41856 -5.29562,-0.7333 -7.96039,-0.94345 -2.66551,-0.20989 -5.33826,-0.31501 -8.01201,-0.3151 -1.94373,0.16309 -3.88245,0.38186 -5.81365,0.656 0.48093,-1.69794 0.93797,-3.40266 1.37095,-5.11345 1.90183,-10.78672 2.85813,-21.71956 2.85801,-32.67261 4.8e-4,-3.64953 -0.10521,-7.2985 -0.31696,-10.94187 -0.21236,-3.64279 -0.53067,-7.27885 -0.9545,-10.90314 -0.42372,-3.62438 -0.95281,-7.23588 -1.58655,-10.82947 -0.63358,-3.59358 -1.3716,-7.16821 -2.21308,-10.71887 -0.84133,-3.55047 -1.78583,-7.07594 -2.83218,-10.57149 -1.047,-3.49561 -2.19553,-6.96022 -3.44397,-10.38905 -1.24807,-3.42894 -2.5957,-6.82104 -4.04103,-10.17162 -1.44516,-3.35047 -2.98759,-6.65837 -4.62512,-9.91916 -1.6377,-3.26082 -3.37002,-6.47348 -5.19453,-9.63354 -1.8244,-3.15992 -3.74045,-6.26628 -5.74547,-9.31478 -2.00525,-3.04901 -4.0989,-6.03924 -6.27804,-8.96649 -2.17906,-2.92685 -4.4429,-5.78986 -6.78844,-8.58506 -2.34514,-2.79523 -4.77122,-5.52183 -7.27491,-8.17599 -2.50413,-2.6542 -5.08508,-5.23513 -7.73928,-7.73927 -2.65414,-2.50429 -5.38073,-4.93102 -8.176,-7.27675 -2.79578,-2.34557 -5.65942,-4.60942 -8.58689,-6.78846 -2.92665,-2.17909 -5.91625,-4.27274 -8.96466,-6.27802 -3.04847,-2.00502 -6.15484,-3.92107 -9.31475,-5.74549 -3.16008,-1.82451 -6.37275,-3.55683 -9.63357,-5.19451 -3.26137,-1.63757 -6.56991,-3.18 -9.921,-4.62514 -3.35056,-1.44533 -6.74267,-2.79294 -10.1716,-4.04101 -3.42886,-1.24783 -6.89346,-2.39575 -10.38905,-3.44214 -3.49555,-1.04633 -7.02102,-1.99085 -10.57149,-2.83219 -3.55064,-0.84207 -7.12525,-1.58071 -10.71888,-2.21491 -3.59362,-0.63312 -7.20511,-1.16158 -10.82946,-1.5847 -3.62427,-0.42381 -7.26033,-0.74215 -10.90316,-0.95451 -3.64273,-0.21233 -7.29109,-0.31863 -10.94,-0.31879 z"
       style="fill:none;stroke:#0051ff;stroke-width:89.6125;stroke-linecap:round;stroke-linejoin:round;stroke-dasharray:none;stroke-opacity:1"
       id="path9" />
  </g>
</svg>
